<?xml version="1.0" encoding="iso-8859-1"?>
<!-- Generator: Adobe Illustrator 19.0.0, SVG Export Plug-In . SVG Version: 6.00 Build 0)  -->
<svg version="1.1" id="Capa_1" xmlns="http://www.w3.org/2000/svg" xmlns:xlink="http://www.w3.org/1999/xlink" x="0px" y="0px"
	 viewBox="0 0 480.032 480.032" style="enable-background:new 0 0 480.032 480.032;" xml:space="preserve">
<g>
	<g>
		<path d="M472.032,64.016c-0.011,0-0.021,0-0.032,0h-32v16h24v232h-48c-4.418,0-8,3.582-8,8v48H296v16h120
			c2.121-0.005,4.154-0.847,5.656-2.344l56-56c0.669-0.68,1.211-1.474,1.6-2.344c0.112-0.248,0.176-0.488,0.264-0.744
			c0.23-0.672,0.37-1.371,0.416-2.08c0-0.168,0.096-0.32,0.096-0.488v-248C480.032,67.598,476.45,64.016,472.032,64.016z
			 M424,356.704v-28.688h28.688L424,356.704z"/>
	</g>
</g>
<g>
	<g>
		<path d="M32,336.016h24c4.418,0,8-3.582,8-8v-248h272v-16H64v-40c0-4.418-3.582-8-8-8H32c-17.673,0-32,14.327-32,32v304
			c0,17.673,14.327,32,32,32h48v-16H32c-8.837,0-16-7.163-16-16S23.163,336.016,32,336.016z M16,48.016c0-8.837,7.163-16,16-16h16
			v288H32c-5.619-0.009-11.141,1.474-16,4.296V48.016z"/>
	</g>
</g>
<g>
	<g>
		<path d="M416,16.016h-56c-4.418,0-8,3.582-8,8v256c0,4.418,3.582,8,8,8h56c4.418,0,8-3.582,8-8v-256
			C424,19.598,420.418,16.016,416,16.016z M408,272.016h-40v-16h16v-16h-16v-16h16v-16h-16v-16h16v-16h-16v-16h16v-16h-16v-16h16
			v-16h-16v-16h16v-16h-16v-16h16v-16h-16v-16h40V272.016z"/>
	</g>
</g>
<g>
	<g>
		<path d="M341.656,450.36l-232-232c-2.288-2.289-5.73-2.975-8.72-1.736c-2.989,1.239-4.937,4.157-4.936,7.392v232
			c0,4.418,3.582,8,8,8h232c4.418-0.001,7.999-3.583,7.998-8.002C343.998,453.894,343.155,451.86,341.656,450.36z M112,448.016
			V243.328l204.688,204.688H112z"/>
	</g>
</g>
<g>
	<g>
		<path d="M245.656,410.36l-96-96c-3.125-3.124-8.19-3.123-11.314,0.002c-1.499,1.5-2.342,3.534-2.342,5.654v96c0,4.418,3.582,8,8,8
			h96c4.418-0.001,7.999-3.583,7.998-8.002C247.998,413.894,247.155,411.86,245.656,410.36z M152,408.016v-68.688l68.688,68.688H152
			z"/>
	</g>
</g>
<g>
	<g>
		<path d="M296,120.016c-13.255,0-24,10.745-24,24v176c0,2.122,0.844,4.156,2.344,5.656l16,16c3.124,3.123,8.188,3.123,11.312,0
			l16-16c1.5-1.5,2.344-3.534,2.344-5.656v-176C320,130.761,309.255,120.016,296,120.016z M304,316.704l-8,8l-8-8V168.016h16
			V316.704z M304,152.016h-16v-8c0-4.418,3.582-8,8-8s8,3.582,8,8V152.016z"/>
	</g>
</g>
<g>
	<g>
		<path d="M232,120.016h-56c-17.673,0-32,14.327-32,32s14.327,32,32,32h8h48c4.418,0,8-3.582,8-8v-48
			C240,123.598,236.418,120.016,232,120.016z M176,168.016c-8.837,0-16-7.163-16-16s7.163-16,16-16V168.016z M224,168.016h-32v-32
			h32V168.016z"/>
	</g>
</g>
<g>
</g>
<g>
</g>
<g>
</g>
<g>
</g>
<g>
</g>
<g>
</g>
<g>
</g>
<g>
</g>
<g>
</g>
<g>
</g>
<g>
</g>
<g>
</g>
<g>
</g>
<g>
</g>
<g>
</g>
</svg>
